<svg width="787" height="1233" viewBox="0 0 787 1233" fill="none" xmlns="http://www.w3.org/2000/svg">
<ellipse rx="145.254" ry="68.8379" transform="matrix(-0.67701 0.735974 0.735974 0.67701 637.412 1060.87)" fill="#A9CE9C"/>
<ellipse rx="145.254" ry="68.8379" transform="matrix(-0.67701 0.735974 0.735974 0.67701 637.412 1060.87)" fill="#A9CE9C"/>
<ellipse cx="149.044" cy="1073.08" rx="145.254" ry="68.8379" transform="rotate(47.3896 149.044 1073.08)" fill="#A9CE9C"/>
<ellipse cx="149.044" cy="1073.08" rx="145.254" ry="68.8379" transform="rotate(47.3896 149.044 1073.08)" fill="#A9CE9C"/>
<g filter="url(#filter0_d_7_319)">
<path d="M114.907 992.826C114.907 1120.94 237.898 1224.8 389.614 1224.8C541.33 1224.8 664.32 1120.94 664.32 992.826C664.32 864.71 541.33 760.852 389.614 760.852C237.898 760.852 114.907 864.71 114.907 992.826Z" fill="#A9CE9C"/>
<path d="M163.744 809.688C163.744 890.604 262.136 956.198 383.509 956.198C504.882 956.198 603.275 890.604 603.275 809.688C603.275 728.773 504.882 663.178 383.509 663.178C262.136 663.178 163.744 728.773 163.744 809.688Z" fill="#A9CE9C"/>
<path d="M468.974 724.224C468.974 757.939 499.038 785.27 536.124 785.27C573.21 785.27 603.275 757.939 603.275 724.224C603.275 690.509 573.21 663.178 536.124 663.178C499.038 663.178 468.974 690.509 468.974 724.224Z" fill="#A9CE9C"/>
<path d="M175.953 724.224C175.953 757.939 206.018 785.27 243.104 785.27C280.19 785.27 310.254 757.939 310.254 724.224C310.254 690.509 280.19 663.178 243.104 663.178C206.018 663.178 175.953 690.509 175.953 724.224Z" fill="#A9CE9C"/>
</g>
<circle r="48.8367" transform="matrix(-1 0 0 1 542.229 724.224)" fill="#D9D9D9"/>
<circle r="36.6275" transform="matrix(-1 0 0 1 542.229 724.224)" fill="#353535"/>
<g filter="url(#filter1_b_7_319)">
<ellipse rx="18.3138" ry="6.10459" transform="matrix(-1 0 0 1 523.916 705.91)" fill="#FFFEFE"/>
</g>
<circle cx="236.999" cy="724.224" r="48.8367" fill="#D9D9D9"/>
<circle cx="236.999" cy="724.224" r="36.6275" fill="#353535"/>
<g filter="url(#filter2_b_7_319)">
<ellipse cx="255.312" cy="705.91" rx="18.3138" ry="6.10459" fill="#FFFEFE"/>
</g>
<path d="M450.791 821.969C453.552 821.925 455.78 819.645 455.466 816.902C453.823 802.564 446.13 789.139 433.649 779.071C419.73 767.843 400.997 761.71 381.571 762.02C362.145 762.33 343.617 769.058 330.063 780.724C317.91 791.185 310.649 804.848 309.464 819.231C309.238 821.983 311.537 824.191 314.298 824.147L322.036 824.023C324.797 823.979 326.967 821.696 327.279 818.953C328.47 808.496 333.901 798.61 342.772 790.975C353.043 782.134 367.085 777.035 381.807 776.8C396.529 776.565 410.725 781.214 421.274 789.723C430.383 797.071 436.127 806.779 437.651 817.192C438.051 819.924 440.292 822.137 443.053 822.093L450.791 821.969Z" fill="#EB9393"/>
<path d="M420.095 725.984C420.124 725.292 419.587 724.705 418.895 724.712C417.72 724.724 416.563 724.821 415.46 725.002C413.967 725.247 412.604 725.64 411.447 726.159C410.291 726.678 409.365 727.313 408.721 728.028C408.077 728.742 407.728 729.522 407.695 730.323C407.662 731.124 407.944 731.931 408.527 732.696C409.109 733.462 409.979 734.171 411.089 734.785C412.198 735.399 413.524 735.904 414.991 736.272C416.075 736.544 417.22 736.737 418.39 736.846C419.079 736.911 419.663 736.37 419.692 735.678V735.678C419.721 734.987 419.182 734.409 418.496 734.319C417.984 734.253 417.484 734.158 417.004 734.038C416.139 733.821 415.357 733.523 414.704 733.162C414.05 732.8 413.537 732.382 413.194 731.93C412.85 731.479 412.684 731.004 412.703 730.532C412.723 730.06 412.929 729.6 413.308 729.179C413.688 728.758 414.234 728.383 414.915 728.077C415.597 727.771 416.4 727.539 417.28 727.395C417.769 727.315 418.275 727.263 418.791 727.239C419.482 727.207 420.067 726.675 420.095 725.984V725.984Z" fill="#809E75"/>
<path d="M420.095 725.984C420.124 725.292 419.587 724.705 418.895 724.712C417.72 724.724 416.563 724.821 415.46 725.002C413.967 725.247 412.604 725.64 411.447 726.159C410.291 726.678 409.365 727.313 408.721 728.028C408.077 728.742 407.728 729.522 407.695 730.323C407.662 731.124 407.944 731.931 408.527 732.696C409.109 733.462 409.979 734.171 411.089 734.785C412.198 735.399 413.524 735.904 414.991 736.272C416.075 736.544 417.22 736.737 418.39 736.846C419.079 736.911 419.663 736.37 419.692 735.678V735.678C419.721 734.987 419.182 734.409 418.496 734.319C417.984 734.253 417.484 734.158 417.004 734.038C416.139 733.821 415.357 733.523 414.704 733.162C414.05 732.8 413.537 732.382 413.194 731.93C412.85 731.479 412.684 731.004 412.703 730.532C412.723 730.06 412.929 729.6 413.308 729.179C413.688 728.758 414.234 728.383 414.915 728.077C415.597 727.771 416.4 727.539 417.28 727.395C417.769 727.315 418.275 727.263 418.791 727.239C419.482 727.207 420.067 726.675 420.095 725.984V725.984Z" fill="#809E75"/>
<path d="M346.437 725.984C346.408 725.292 346.945 724.705 347.637 724.712C348.812 724.724 349.969 724.821 351.072 725.002C352.565 725.247 353.928 725.64 355.084 726.159C356.241 726.678 357.167 727.313 357.811 728.028C358.455 728.742 358.804 729.522 358.837 730.323C358.87 731.124 358.588 731.931 358.005 732.696C357.423 733.462 356.553 734.171 355.443 734.785C354.334 735.399 353.008 735.904 351.541 736.272C350.457 736.544 349.312 736.737 348.142 736.846C347.453 736.911 346.869 736.37 346.84 735.678V735.678C346.811 734.987 347.35 734.409 348.036 734.319C348.548 734.253 349.048 734.158 349.528 734.038C350.393 733.821 351.175 733.523 351.828 733.162C352.482 732.8 352.995 732.382 353.338 731.93C353.682 731.479 353.848 731.004 353.829 730.532C353.809 730.06 353.603 729.6 353.224 729.179C352.844 728.758 352.298 728.383 351.617 728.077C350.935 727.771 350.132 727.539 349.252 727.395C348.763 727.315 348.257 727.263 347.741 727.239C347.05 727.207 346.465 726.675 346.437 725.984V725.984Z" fill="#809E75"/>
<path d="M346.437 725.984C346.408 725.292 346.945 724.705 347.637 724.712C348.812 724.724 349.969 724.821 351.072 725.002C352.565 725.247 353.928 725.64 355.084 726.159C356.241 726.678 357.167 727.313 357.811 728.028C358.455 728.742 358.804 729.522 358.837 730.323C358.87 731.124 358.588 731.931 358.005 732.696C357.423 733.462 356.553 734.171 355.443 734.785C354.334 735.399 353.008 735.904 351.541 736.272C350.457 736.544 349.312 736.737 348.142 736.846C347.453 736.911 346.869 736.37 346.84 735.678V735.678C346.811 734.987 347.35 734.409 348.036 734.319C348.548 734.253 349.048 734.158 349.528 734.038C350.393 733.821 351.175 733.523 351.828 733.162C352.482 732.8 352.995 732.382 353.338 731.93C353.682 731.479 353.848 731.004 353.829 730.532C353.809 730.06 353.603 729.6 353.224 729.179C352.844 728.758 352.298 728.383 351.617 728.077C350.935 727.771 350.132 727.539 349.252 727.395C348.763 727.315 348.257 727.263 347.741 727.239C347.05 727.207 346.465 726.675 346.437 725.984V725.984Z" fill="#809E75"/>
<ellipse rx="54.9413" ry="24.4184" transform="matrix(-1 0 0 1 572.751 1188.17)" fill="#A9CE9C"/>
<ellipse cx="218.685" cy="1188.17" rx="54.9413" ry="24.4184" fill="#A9CE9C"/>
<rect x="361" y="516" width="43" height="193" rx="21" fill="#A9CE9C"/>
<rect x="356" width="43" height="538" rx="21" fill="#A9CE9C"/>
<path d="M377.639 530.5C377.639 561.152 337.793 568 288.639 568C239.486 568 108.639 500.652 108.639 470C108.639 439.348 233.486 436 282.639 436C331.793 436 377.639 499.848 377.639 530.5Z" fill="#BFE2B3"/>
<path d="M114 469C128.326 470.332 142.559 473.085 156.911 474.373C171.056 475.642 185.295 476.635 199.48 477.252C206.45 477.556 213.517 478.656 220.42 479.605M255.505 484.17C269.134 486.6 282.214 491.011 295.052 496.179C304.168 499.85 313.057 504.219 321.794 508.751M344.383 518.267C347.913 519.787 351.608 521.116 354.956 523.042C356.903 524.163 358.721 525.736 360.827 526.519C362.952 527.31 365.932 529.295 367.967 530.452C370.703 532.007 370.862 532.201 373.5 534" stroke="#A9CE9C" stroke-width="6" stroke-linecap="round"/>
<path d="M374.721 535.556C381.118 565.533 421.516 563.915 469.587 553.657C517.658 543.4 631.569 450.228 625.173 420.251C618.776 390.275 495.979 413.054 447.908 423.312C399.837 433.569 368.324 505.579 374.721 535.556Z" fill="#97C786"/>
<g style="mix-blend-mode:multiply" opacity="0.5">
<path d="M619.721 420.392C605.989 424.685 592.643 430.347 578.876 434.602C565.307 438.795 551.589 442.737 537.846 446.301C531.092 448.053 524.411 450.603 517.857 452.972M484.498 464.758C471.676 469.979 459.804 477.022 448.328 484.756C440.178 490.248 432.396 496.377 424.797 502.632M404.692 516.652C401.557 518.876 398.22 520.947 395.348 523.529C393.678 525.031 392.229 526.949 390.333 528.154C388.419 529.371 385.919 531.935 384.17 533.491C381.818 535.583 381.704 535.806 379.499 538.116" stroke="#6D9B5C" stroke-width="6" stroke-linecap="round"/>
</g>
<rect x="130" y="79" width="506" height="265" rx="7" fill="url(#paint0_linear_7_319)"/>
<path d="M355.529 189H335.013V188.264C335.013 184.891 336.362 183.081 339.061 182.836L341.913 182.652V149.256L338.325 148.888C335.81 148.643 334.676 146.741 334.921 143.184L353.137 141.16V182.468L359.669 183.02C360.037 187.007 358.657 189 355.529 189ZM353.597 130.212C353.597 132.113 352.953 133.739 351.665 135.088C350.377 136.376 348.752 137.02 346.789 137.02C344.888 137.02 343.262 136.376 341.913 135.088C340.625 133.739 339.981 132.113 339.981 130.212C339.981 128.311 340.625 126.716 341.913 125.428C343.262 124.079 344.888 123.404 346.789 123.404C348.69 123.404 350.285 124.079 351.573 125.428C352.922 126.716 353.597 128.311 353.597 130.212ZM420.328 189H399.996V188.264C399.996 184.891 401.345 183.081 404.044 182.836L406.712 182.652V160.02C406.712 156.463 406.006 153.979 404.596 152.568C403.185 151.096 401.222 150.36 398.708 150.36C396.193 150.36 394.138 150.697 392.544 151.372C390.949 152.047 389.293 153.12 387.576 154.592V182.468L394.108 183.02C394.476 187.007 393.096 189 389.968 189H369.452V188.264C369.452 184.891 370.801 183.081 373.5 182.836L376.352 182.652V149.808L372.764 149.44C370.249 149.195 369.114 147.293 369.36 143.736L386.012 141.712L386.656 147.324H386.932C389.201 145.361 391.378 143.859 393.464 142.816C395.61 141.712 398.125 141.16 401.008 141.16C405.73 141.16 409.717 142.755 412.968 145.944C416.28 149.072 417.936 153.917 417.936 160.48V182.468L424.468 183.02C424.836 187.007 423.456 189 420.328 189ZM173.636 225.496C177.622 221.939 182.13 220.16 187.16 220.16C192.25 220.16 196.605 221.969 200.224 225.588C203.842 229.145 205.713 234.849 205.836 242.7C205.958 250.551 204.057 256.96 200.132 261.928C196.268 266.896 190.564 269.38 183.02 269.38C179.646 269.38 176.733 268.859 174.28 267.816V281.524H174.372L180.812 282.076C181.18 286.063 179.8 288.056 176.672 288.056H156.156V287.32C156.156 283.947 157.505 282.137 160.204 281.892L163.056 281.708V228.808L159.1 228.348C157.198 228.103 156.248 226.263 156.248 222.828L172.808 220.712L173.636 225.496ZM183.756 261.928C190.686 261.928 194.152 256.193 194.152 244.724C194.152 239.449 193.232 235.371 191.392 232.488C189.613 229.605 187.068 228.164 183.756 228.164C180.444 228.164 177.285 229.544 174.28 232.304V258.248C177.224 260.701 180.382 261.928 183.756 261.928ZM234.624 228.256C236.096 226.293 238.181 224.453 240.88 222.736C243.64 221.019 246.001 220.16 247.964 220.16C249.988 220.16 251.674 220.804 253.024 222.092C254.373 223.38 255.048 225.527 255.048 228.532C255.048 231.476 254.036 233.837 252.012 235.616C250.969 236.413 249.221 236.659 246.768 236.352C246.768 234.328 246.584 232.795 246.216 231.752C245.848 230.648 245.449 230.004 245.02 229.82C244.59 229.575 244.008 229.452 243.272 229.452C240.205 229.452 237.445 231.445 234.992 235.432V261.468L242.444 262.02C242.812 266.007 241.432 268 238.304 268H217.052C217.052 268 217.052 267.755 217.052 267.264C217.052 263.891 218.401 262.081 221.1 261.836L223.768 261.652V228.716L219.72 228.256C217.818 228.072 216.868 226.232 216.868 222.736L233.52 220.62L234.348 228.256H234.624ZM292.608 232.12C290.891 228.869 288.437 227.244 285.248 227.244C282.059 227.244 279.575 228.839 277.796 232.028C276.079 235.217 275.22 239.572 275.22 245.092C275.22 250.551 276.079 254.813 277.796 257.88C279.575 260.885 282.059 262.388 285.248 262.388C288.437 262.388 290.891 260.916 292.608 257.972C294.387 254.967 295.276 250.735 295.276 245.276C295.276 239.756 294.387 235.371 292.608 232.12ZM263.536 245.552C263.536 237.701 265.468 231.507 269.332 226.968C273.257 222.429 278.685 220.16 285.616 220.16C292.547 220.16 297.821 222.337 301.44 226.692C305.12 231.047 306.96 237.088 306.96 244.816C306.96 252.483 304.997 258.493 301.072 262.848C297.147 267.203 291.657 269.38 284.604 269.38C277.612 269.38 272.337 267.356 268.78 263.308C265.284 259.26 263.536 253.341 263.536 245.552ZM335.663 254.568C334.13 254.568 332.597 254.415 331.063 254.108C330.205 255.641 329.775 256.745 329.775 257.42C329.775 258.095 330.481 258.555 331.891 258.8C333.302 258.984 336.645 259.168 341.919 259.352C347.194 259.536 351.273 260.487 354.155 262.204C357.099 263.86 358.571 266.743 358.571 270.852C358.571 276.495 356.394 281.003 352.039 284.376C347.685 287.749 342.318 289.436 335.939 289.436C329.622 289.436 324.869 288.271 321.679 285.94C318.551 283.609 316.987 280.604 316.987 276.924C316.987 273.244 318.766 269.748 322.323 266.436C321.403 265.332 320.943 263.86 320.943 262.02C320.943 258.769 322.477 255.365 325.543 251.808C320.821 248.741 318.459 244.08 318.459 237.824C318.459 232.733 320.085 228.532 323.335 225.22C326.647 221.847 331.063 220.16 336.583 220.16C340.202 220.16 343.391 220.896 346.151 222.368L358.479 219.056C359.031 219.731 359.338 220.988 359.399 222.828C359.461 224.668 359.154 225.895 358.479 226.508C357.559 226.999 355.167 227.183 351.303 227.06C353.082 229.697 353.849 233.377 353.603 238.1C353.358 242.761 351.61 246.687 348.359 249.876C345.109 253.004 340.877 254.568 335.663 254.568ZM350.751 273.704C350.751 272.293 349.709 271.373 347.623 270.944C345.538 270.515 342.011 270.177 337.043 269.932C332.075 269.687 328.886 269.411 327.475 269.104C325.942 270.944 325.175 272.815 325.175 274.716C325.175 276.617 326.157 278.181 328.119 279.408C330.082 280.635 333.026 281.248 336.951 281.248C340.877 281.248 344.158 280.512 346.795 279.04C349.433 277.629 350.751 275.851 350.751 273.704ZM335.847 247.852C338.055 247.852 339.803 246.963 341.091 245.184C342.379 243.344 343.023 240.799 343.023 237.548C343.023 234.236 342.41 231.691 341.183 229.912C339.957 228.072 338.209 227.152 335.939 227.152C333.67 227.152 331.922 228.072 330.695 229.912C329.53 231.752 328.947 234.328 328.947 237.64C328.947 244.448 331.247 247.852 335.847 247.852ZM385.288 228.256C386.76 226.293 388.845 224.453 391.544 222.736C394.304 221.019 396.665 220.16 398.628 220.16C400.652 220.16 402.339 220.804 403.688 222.092C405.037 223.38 405.712 225.527 405.712 228.532C405.712 231.476 404.7 233.837 402.676 235.616C401.633 236.413 399.885 236.659 397.432 236.352C397.432 234.328 397.248 232.795 396.88 231.752C396.512 230.648 396.113 230.004 395.684 229.82C395.255 229.575 394.672 229.452 393.936 229.452C390.869 229.452 388.109 231.445 385.656 235.432V261.468L393.108 262.02C393.476 266.007 392.096 268 388.968 268H367.716C367.716 268 367.716 267.755 367.716 267.264C367.716 263.891 369.065 262.081 371.764 261.836L374.432 261.652V228.716L370.384 228.256C368.483 228.072 367.532 226.232 367.532 222.736L384.184 220.62L385.012 228.256H385.288ZM425.884 245.46V246.472C425.884 251.44 426.774 255.151 428.552 257.604C430.392 259.996 433.52 261.192 437.936 261.192C442.414 261.192 446.799 259.505 451.092 256.132C452.319 257.052 452.932 258.493 452.932 260.456C452.932 262.357 451.215 264.32 447.78 266.344C444.407 268.368 440.175 269.38 435.084 269.38C428.46 269.38 423.308 267.448 419.628 263.584C416.01 259.659 414.2 253.74 414.2 245.828C414.2 237.855 416.163 231.599 420.088 227.06C424.075 222.46 429.534 220.16 436.464 220.16C442.352 220.16 446.738 222 449.62 225.68C452.564 229.36 453.975 234.205 453.852 240.216V245.46H425.884ZM435.452 227.52C430.423 227.52 427.387 231.384 426.344 239.112H443.088C442.966 234.941 442.26 231.967 440.972 230.188C439.684 228.409 437.844 227.52 435.452 227.52ZM494.707 223.564C496.24 224.913 497.007 226.661 497.007 228.808C497.007 230.955 496.302 232.611 494.891 233.776C493.542 234.941 491.794 235.371 489.647 235.064C489.647 232.795 488.758 230.893 486.979 229.36C485.2 227.765 483.207 226.968 480.999 226.968C478.852 226.968 477.196 227.397 476.031 228.256C474.866 229.053 474.283 230.127 474.283 231.476C474.283 232.825 475.111 234.052 476.767 235.156C478.484 236.199 480.876 237.333 483.943 238.56C487.071 239.787 489.31 240.768 490.659 241.504C492.008 242.179 493.45 243.099 494.983 244.264C497.927 246.472 499.399 249.753 499.399 254.108C499.399 258.401 497.651 262.02 494.155 264.964C490.659 267.908 485.998 269.38 480.171 269.38C475.878 269.38 472.106 268.583 468.855 266.988C465.666 265.393 464.071 263.001 464.071 259.812C464.071 257.665 464.838 256.009 466.371 254.844C467.904 253.617 469.714 253.004 471.799 253.004C472.596 259.26 476.154 262.388 482.471 262.388C487.562 262.388 490.107 260.701 490.107 257.328C490.107 255.12 488.758 253.341 486.059 251.992C484.587 251.195 482.808 250.397 480.723 249.6C478.638 248.803 476.982 248.128 475.755 247.576C474.59 246.963 473.302 246.196 471.891 245.276C470.48 244.356 469.315 243.405 468.395 242.424C466.371 240.155 465.359 237.395 465.359 234.144C465.359 229.728 467.138 226.293 470.695 223.84C474.252 221.387 478.515 220.16 483.483 220.16C488.451 220.16 492.192 221.295 494.707 223.564ZM539.658 223.564C541.191 224.913 541.958 226.661 541.958 228.808C541.958 230.955 541.252 232.611 539.842 233.776C538.492 234.941 536.744 235.371 534.598 235.064C534.598 232.795 533.708 230.893 531.93 229.36C530.151 227.765 528.158 226.968 525.95 226.968C523.803 226.968 522.147 227.397 520.982 228.256C519.816 229.053 519.234 230.127 519.234 231.476C519.234 232.825 520.062 234.052 521.718 235.156C523.435 236.199 525.827 237.333 528.894 238.56C532.022 239.787 534.26 240.768 535.61 241.504C536.959 242.179 538.4 243.099 539.934 244.264C542.878 246.472 544.35 249.753 544.35 254.108C544.35 258.401 542.602 262.02 539.106 264.964C535.61 267.908 530.948 269.38 525.122 269.38C520.828 269.38 517.056 268.583 513.806 266.988C510.616 265.393 509.022 263.001 509.022 259.812C509.022 257.665 509.788 256.009 511.322 254.844C512.855 253.617 514.664 253.004 516.75 253.004C517.547 259.26 521.104 262.388 527.422 262.388C532.512 262.388 535.058 260.701 535.058 257.328C535.058 255.12 533.708 253.341 531.01 251.992C529.538 251.195 527.759 250.397 525.674 249.6C523.588 248.803 521.932 248.128 520.706 247.576C519.54 246.963 518.252 246.196 516.842 245.276C515.431 244.356 514.266 243.405 513.346 242.424C511.322 240.155 510.31 237.395 510.31 234.144C510.31 229.728 512.088 226.293 515.646 223.84C519.203 221.387 523.466 220.16 528.434 220.16C533.402 220.16 537.143 221.295 539.658 223.564ZM568.692 267.264C567.282 268.675 565.564 269.38 563.54 269.38C561.516 269.38 559.799 268.675 558.388 267.264C556.978 265.853 556.272 264.136 556.272 262.112C556.272 260.088 556.978 258.371 558.388 256.96C559.799 255.549 561.516 254.844 563.54 254.844C565.564 254.844 567.282 255.549 568.692 256.96C570.103 258.371 570.808 260.088 570.808 262.112C570.808 264.136 570.103 265.853 568.692 267.264ZM597.471 267.264C596.06 268.675 594.343 269.38 592.319 269.38C590.295 269.38 588.578 268.675 587.167 267.264C585.756 265.853 585.051 264.136 585.051 262.112C585.051 260.088 585.756 258.371 587.167 256.96C588.578 255.549 590.295 254.844 592.319 254.844C594.343 254.844 596.06 255.549 597.471 256.96C598.882 258.371 599.587 260.088 599.587 262.112C599.587 264.136 598.882 265.853 597.471 267.264ZM626.25 267.264C624.839 268.675 623.122 269.38 621.098 269.38C619.074 269.38 617.356 268.675 615.946 267.264C614.535 265.853 613.83 264.136 613.83 262.112C613.83 260.088 614.535 258.371 615.946 256.96C617.356 255.549 619.074 254.844 621.098 254.844C623.122 254.844 624.839 255.549 626.25 256.96C627.66 258.371 628.366 260.088 628.366 262.112C628.366 264.136 627.66 265.853 626.25 267.264Z" fill="white"/>
<circle cx="378" cy="79" r="12" fill="#6D5A49"/>
<defs>
<filter id="filter0_d_7_319" x="110.907" y="663.178" width="557.413" height="569.622" filterUnits="userSpaceOnUse" color-interpolation-filters="sRGB">
<feFlood flood-opacity="0" result="BackgroundImageFix"/>
<feColorMatrix in="SourceAlpha" type="matrix" values="0 0 0 0 0 0 0 0 0 0 0 0 0 0 0 0 0 0 127 0" result="hardAlpha"/>
<feOffset dy="4"/>
<feGaussianBlur stdDeviation="2"/>
<feComposite in2="hardAlpha" operator="out"/>
<feColorMatrix type="matrix" values="0 0 0 0 0 0 0 0 0 0 0 0 0 0 0 0 0 0 0.25 0"/>
<feBlend mode="normal" in2="BackgroundImageFix" result="effect1_dropShadow_7_319"/>
<feBlend mode="normal" in="SourceGraphic" in2="effect1_dropShadow_7_319" result="shape"/>
</filter>
<filter id="filter1_b_7_319" x="501.602" y="695.806" width="44.6276" height="20.2092" filterUnits="userSpaceOnUse" color-interpolation-filters="sRGB">
<feFlood flood-opacity="0" result="BackgroundImageFix"/>
<feGaussianBlur in="BackgroundImage" stdDeviation="2"/>
<feComposite in2="SourceAlpha" operator="in" result="effect1_backgroundBlur_7_319"/>
<feBlend mode="normal" in="SourceGraphic" in2="effect1_backgroundBlur_7_319" result="shape"/>
</filter>
<filter id="filter2_b_7_319" x="232.999" y="695.806" width="44.6276" height="20.2092" filterUnits="userSpaceOnUse" color-interpolation-filters="sRGB">
<feFlood flood-opacity="0" result="BackgroundImageFix"/>
<feGaussianBlur in="BackgroundImage" stdDeviation="2"/>
<feComposite in2="SourceAlpha" operator="in" result="effect1_backgroundBlur_7_319"/>
<feBlend mode="normal" in="SourceGraphic" in2="effect1_backgroundBlur_7_319" result="shape"/>
</filter>
<linearGradient id="paint0_linear_7_319" x1="383" y1="79" x2="383" y2="344" gradientUnits="userSpaceOnUse">
<stop stop-color="#AB8E73"/>
<stop offset="1" stop-color="#6D5A49"/>
</linearGradient>
</defs>
</svg>
