<svg width="507" height="756" viewBox="0 0 507 756" fill="none" xmlns="http://www.w3.org/2000/svg">
<path fill-rule="evenodd" clip-rule="evenodd" d="M202.923 67.6026C171.617 100.607 154.032 145.364 154.033 192.031V521.031H488.033V192.031H321.033L488.033 192C488.024 145.322 470.421 100.559 439.096 67.5584C407.772 34.5578 365.291 16.023 321 16.0313C276.709 16.0396 234.235 34.5903 202.923 67.6026Z" fill="url(#paint0_linear_3_131)"/>
<path d="M282 326H353L357 399.5L316.5 420L277.5 399.5L282 326Z" fill="url(#paint1_linear_3_131)"/>
<g filter="url(#filter0_d_3_131)">
<ellipse cx="318.5" cy="187.609" rx="129.5" ry="148" fill="#DED1C5"/>
</g>
<path d="M187.034 173.429C187.166 136.549 201.258 101.25 226.209 75.2982C251.159 49.3461 284.926 34.8664 320.079 35.0445C355.232 35.2226 388.893 50.0439 413.656 76.2479C438.42 102.452 452.257 137.892 452.125 174.772L319.579 174.101L187.034 173.429Z" fill="url(#paint2_linear_3_131)"/>
<g filter="url(#filter1_f_3_131)">
<ellipse cx="395" cy="252" rx="34" ry="17" fill="#EAB9B9"/>
</g>
<g filter="url(#filter2_f_3_131)">
<ellipse cx="249" cy="251" rx="34" ry="17" fill="#EAB9B9"/>
</g>
<path d="M216.404 218.269C216.253 222.368 217.103 224.448 218.096 225.602C219.106 226.774 220.804 227.624 223.747 228.08C226.705 228.538 230.373 228.519 234.826 228.401C235.47 228.384 236.129 228.365 236.801 228.346C240.663 228.235 244.954 228.111 249.404 228.276C253.855 228.44 258.125 228.88 261.968 229.275C262.637 229.344 263.292 229.412 263.934 229.476C268.366 229.922 272.022 230.211 275.007 229.972C277.975 229.735 279.731 229.012 280.824 227.918C281.9 226.841 282.901 224.83 283.053 220.73C283.645 204.697 269.583 190.55 250.823 189.857C232.063 189.165 216.996 202.236 216.404 218.269Z" fill="#C0C3CD"/>
<path d="M216.404 218.269C216.253 222.368 217.103 224.448 218.096 225.602C219.106 226.774 220.804 227.624 223.747 228.08C226.705 228.538 230.373 228.519 234.826 228.401C235.47 228.384 236.129 228.365 236.801 228.346C240.663 228.235 244.954 228.111 249.404 228.276C253.855 228.44 258.125 228.88 261.968 229.275C262.637 229.344 263.292 229.412 263.934 229.476C268.366 229.922 272.022 230.211 275.007 229.972C277.975 229.735 279.731 229.012 280.824 227.918C281.9 226.841 282.901 224.83 283.053 220.73C283.645 204.697 269.583 190.55 250.823 189.857C232.063 189.165 216.996 202.236 216.404 218.269Z" stroke="#C5BD94" stroke-width="7"/>
<path d="M216.404 218.269C216.253 222.368 217.103 224.448 218.096 225.602C219.106 226.774 220.804 227.624 223.747 228.08C226.705 228.538 230.373 228.519 234.826 228.401C235.47 228.384 236.129 228.365 236.801 228.346C240.663 228.235 244.954 228.111 249.404 228.276C253.855 228.44 258.125 228.88 261.968 229.275C262.637 229.344 263.292 229.412 263.934 229.476C268.366 229.922 272.022 230.211 275.007 229.972C277.975 229.735 279.731 229.012 280.824 227.918C281.9 226.841 282.901 224.83 283.053 220.73C283.645 204.697 269.583 190.55 250.823 189.857C232.063 189.165 216.996 202.236 216.404 218.269Z" stroke="#353535" stroke-width="7"/>
<circle r="13.6247" transform="matrix(-0.999319 -0.0369014 -0.0369014 0.999319 250.727 209.089)" fill="#A8B2C0" stroke="#889FA0"/>
<circle r="7.98352" transform="matrix(-0.999319 -0.0369014 -0.0369014 0.999319 250.727 209.089)" fill="#565656"/>
<line x1="2.5" y1="-2.5" x2="11.2321" y2="-2.5" transform="matrix(0.142457 0.989801 0.989801 -0.142457 272.822 226.498)" stroke="#353535" stroke-width="5" stroke-linecap="round"/>
<line x1="2.5" y1="-2.5" x2="12.2388" y2="-2.5" transform="matrix(-0.0369014 0.999319 0.999319 0.0369014 253.048 229.455)" stroke="#353535" stroke-width="5" stroke-linecap="round"/>
<line x1="2.5" y1="-2.5" x2="10.7854" y2="-2.5" transform="matrix(-0.585026 0.811014 0.811014 0.585026 235.819 230.047)" stroke="#353535" stroke-width="5" stroke-linecap="round"/>
<g filter="url(#filter3_d_3_131)">
<circle r="4.29882" transform="matrix(-0.999319 -0.0369014 -0.0369014 0.999319 245.954 205.226)" fill="#D9D9D9"/>
</g>
<path d="M424.37 218.269C424.521 222.368 423.671 224.448 422.678 225.602C421.669 226.774 419.97 227.624 417.028 228.08C414.069 228.538 410.402 228.519 405.948 228.401C405.304 228.384 404.645 228.365 403.973 228.346C400.111 228.235 395.821 228.111 391.37 228.276C386.919 228.44 382.65 228.88 378.806 229.275C378.137 229.344 377.482 229.412 376.84 229.476C372.408 229.922 368.752 230.211 365.767 229.972C362.8 229.735 361.043 229.012 359.95 227.918C358.874 226.841 357.873 224.83 357.721 220.73C357.129 204.697 371.191 190.55 389.951 189.857C408.711 189.165 423.778 202.236 424.37 218.269Z" fill="#C0C3CD"/>
<path d="M424.37 218.269C424.521 222.368 423.671 224.448 422.678 225.602C421.669 226.774 419.97 227.624 417.028 228.08C414.069 228.538 410.402 228.519 405.948 228.401C405.304 228.384 404.645 228.365 403.973 228.346C400.111 228.235 395.821 228.111 391.37 228.276C386.919 228.44 382.65 228.88 378.806 229.275C378.137 229.344 377.482 229.412 376.84 229.476C372.408 229.922 368.752 230.211 365.767 229.972C362.8 229.735 361.043 229.012 359.95 227.918C358.874 226.841 357.873 224.83 357.721 220.73C357.129 204.697 371.191 190.55 389.951 189.857C408.711 189.165 423.778 202.236 424.37 218.269Z" stroke="#C5BD94" stroke-width="7"/>
<path d="M424.37 218.269C424.521 222.368 423.671 224.448 422.678 225.602C421.669 226.774 419.97 227.624 417.028 228.08C414.069 228.538 410.402 228.519 405.948 228.401C405.304 228.384 404.645 228.365 403.973 228.346C400.111 228.235 395.821 228.111 391.37 228.276C386.919 228.44 382.65 228.88 378.806 229.275C378.137 229.344 377.482 229.412 376.84 229.476C372.408 229.922 368.752 230.211 365.767 229.972C362.8 229.735 361.043 229.012 359.95 227.918C358.874 226.841 357.873 224.83 357.721 220.73C357.129 204.697 371.191 190.55 389.951 189.857C408.711 189.165 423.778 202.236 424.37 218.269Z" stroke="#353535" stroke-width="7"/>
<circle cx="390.047" cy="209.089" r="13.6247" transform="rotate(-2.11478 390.047 209.089)" fill="#A8B2C0" stroke="#889FA0"/>
<circle cx="390.047" cy="209.089" r="7.98352" transform="rotate(-2.11478 390.047 209.089)" fill="#565656"/>
<line x1="370.07" y1="229.328" x2="368.826" y2="237.971" stroke="#353535" stroke-width="5" stroke-linecap="round"/>
<line x1="390.317" y1="231.861" x2="390.676" y2="241.593" stroke="#353535" stroke-width="5" stroke-linecap="round"/>
<line x1="408.445" y1="230.612" x2="413.292" y2="237.332" stroke="#353535" stroke-width="5" stroke-linecap="round"/>
<g filter="url(#filter4_d_3_131)">
<circle cx="394.82" cy="205.226" r="4.29882" transform="rotate(-2.11478 394.82 205.226)" fill="#D9D9D9"/>
</g>
<path d="M347.952 285.687C347.952 294.697 335.203 302 319.476 302C303.749 302 291 295.206 291 286.197C291 277.188 304.747 285.178 318.985 287.217C334.712 287.217 348.934 279.06 347.952 285.687Z" fill="#535353"/>
<g filter="url(#filter5_d_3_131)">
<path d="M291.021 284.497C294 280.5 304.105 269.859 320.12 270C336.136 270.141 343 279.5 349.018 285.007C348.963 291.356 336.136 284.638 320.12 284.497C304.105 284.357 290.965 290.847 291.021 284.497Z" fill="#1E1E1E"/>
</g>
<g filter="url(#filter6_d_3_131)">
<ellipse cx="326.5" cy="273" rx="2.5" ry="1" fill="#D9D9D9"/>
</g>
<ellipse cx="370.262" cy="151.5" rx="11.1643" ry="18.3447" transform="rotate(113.254 370.262 151.5)" fill="#353535"/>
<ellipse rx="11.1643" ry="18.3447" transform="matrix(0.39481 0.918763 0.918763 -0.39481 274.262 150.5)" fill="#383838"/>
<path d="M287.91 2.47764L310.069 35.8202L301.564 40.1116L287.91 2.47764Z" fill="#535353"/>
<path d="M326.739 12.4539L316.002 42.303L307.623 37.7691L326.739 12.4539Z" fill="#535353"/>
<ellipse cx="442.705" cy="220.602" rx="11.9618" ry="25.7808" transform="rotate(11.1087 442.705 220.602)" fill="#DED1C5"/>
<path d="M222.631 481.448C206.595 556.728 181.805 615.243 167.262 612.145C152.719 609.047 153.93 545.509 169.966 470.23C186.002 394.95 196.943 382.698 211.486 385.796C226.03 388.894 238.667 406.168 222.631 481.448Z" fill="#DED1C5"/>
<path fill-rule="evenodd" clip-rule="evenodd" d="M436.439 425.715C436.439 390.367 402.493 364.925 368.565 374.844L333.188 385.188C323.553 388.005 313.317 388.028 303.67 385.254L270.524 375.725C235.354 365.613 200.763 393.341 202.977 429.868L203.5 438.5L204.096 454H204V640.657C200.407 650.073 198.439 660.291 198.439 670.969C198.439 717.93 236.508 756 283.47 756H351.407C398.369 756 436.439 717.93 436.439 670.969C436.439 659.452 434.149 648.47 430 638.453V497.837C434.106 490.307 436.439 481.673 436.439 472.498V425.715Z" fill="black"/>
<path d="M425.102 481.448C441.139 556.728 465.928 615.243 480.471 612.145C495.014 609.047 493.804 545.509 477.768 470.23C461.731 394.95 450.79 382.698 436.247 385.796C421.704 388.894 409.066 406.168 425.102 481.448Z" fill="#DED1C5"/>
<path d="M421.766 584.496C376.237 598.413 342.621 620.465 346.682 633.751C350.743 647.037 390.944 646.526 436.473 632.609C482.002 618.692 488.213 608.832 484.152 595.546C480.091 582.26 467.295 570.579 421.766 584.496Z" fill="#DED1C5"/>
<path d="M118.416 581.472C88.5969 544.359 72.8581 507.496 83.2625 499.136C93.667 490.777 126.275 514.086 156.094 551.199C185.913 588.313 185.737 599.771 175.332 608.131C164.928 616.49 148.235 618.585 118.416 581.472Z" fill="#DED1C5"/>
<g filter="url(#filter7_d_3_131)">
<ellipse rx="46.5" ry="47" transform="matrix(-1 0 0 1 430.939 398)" fill="#1E1E1E"/>
</g>
<g filter="url(#filter8_d_3_131)">
<ellipse cx="211.939" cy="397" rx="46.5" ry="47" fill="#1E1E1E"/>
</g>
<g filter="url(#filter9_d_3_131)">
<path d="M386.176 597.315C388.898 583.701 378.486 571 364.603 571H254.439C242.288 571 232.439 580.85 232.439 593V639C232.439 651.15 242.288 661 254.439 661H364.603C378.486 661 388.898 648.299 386.176 634.685L383.301 620.315C382.732 617.466 382.732 614.534 383.301 611.685L386.176 597.315Z" fill="#1E1E1E"/>
</g>
<path d="M17.467 488.706C16.6834 490.753 21.9923 494.687 29.3247 497.494C36.6571 500.301 43.2363 500.918 44.0198 498.871C44.8034 496.824 39.4945 492.89 32.1621 490.083C24.8297 487.276 18.2505 486.659 17.467 488.706Z" fill="url(#paint3_linear_3_131)"/>
<path d="M6.15456 476.032C4.74068 477.706 8.45758 483.17 14.4565 488.235C20.4554 493.3 26.4646 496.049 27.8785 494.375C29.2924 492.7 25.5755 487.237 19.5766 482.171C13.5777 477.106 7.56844 474.357 6.15456 476.032Z" fill="url(#paint4_linear_3_131)"/>
<path d="M25.7631 482.278C24.7362 484.214 29.5266 488.766 36.4628 492.444C43.3989 496.123 49.8542 497.536 50.881 495.6C51.9079 493.663 47.1175 489.112 40.1813 485.433C33.2452 481.754 26.7899 480.342 25.7631 482.278Z" fill="url(#paint5_linear_3_131)"/>
<path d="M16.0776 468.321C14.4704 469.811 17.4946 475.686 22.8323 481.444C28.17 487.202 33.7999 490.662 35.4071 489.172C37.0143 487.682 33.9901 481.806 28.6525 476.049C23.3148 470.291 17.6848 466.831 16.0776 468.321Z" fill="url(#paint6_linear_3_131)"/>
<path d="M31.9386 501.991C31.9386 511.38 46.0416 514.991 63.4386 514.991C80.8355 514.991 94.9386 511.38 94.9386 501.991C94.9386 492.602 75.8355 488.491 58.4386 488.491C41.0416 488.491 31.9386 492.602 31.9386 501.991Z" fill="#DED1C5"/>
<ellipse rx="14.216" ry="3.96821" transform="matrix(-0.933906 -0.357519 -0.357519 0.933906 26.7434 497.788)" fill="url(#paint7_linear_3_131)"/>
<ellipse rx="12.2273" ry="3.69079" transform="matrix(-0.808242 -0.58885 -0.58885 0.808242 12.0559 491.632)" fill="url(#paint8_linear_3_131)"/>
<path d="M21.467 500.706C20.6835 502.753 25.9923 506.687 33.3247 509.494C40.6571 512.301 47.2363 512.918 48.0199 510.871C48.8034 508.824 44.7709 503.513 37.4386 500.706C30.1062 497.899 22.2505 498.659 21.467 500.706Z" fill="url(#paint9_linear_3_131)"/>
<path d="M10.1546 488.032C8.74072 489.706 12.4576 495.17 18.4565 500.235C24.4554 505.3 30.4646 508.049 31.8785 506.375C33.2924 504.7 29.5755 499.237 23.5766 494.171C17.5777 489.106 11.5685 486.357 10.1546 488.032Z" fill="url(#paint10_linear_3_131)"/>
<path d="M54.4219 478.304C53.4212 480.681 58.4763 485.077 65.7125 488.124C72.9488 491.17 79.6262 491.712 80.6268 489.335C81.6274 486.958 76.5724 482.562 69.3361 479.516C62.0998 476.469 55.4225 475.927 54.4219 478.304Z" fill="url(#paint11_linear_3_131)"/>
<path d="M49.1571 477.416C48.5241 479.505 51.5409 482.268 55.8953 483.588C60.2496 484.907 64.2926 484.282 64.9256 482.193C65.5585 480.104 62.5418 477.34 58.1874 476.021C53.8331 474.702 49.7901 475.327 49.1571 477.416Z" fill="url(#paint12_linear_3_131)"/>
<path d="M65.8943 488.138C64.8442 491.646 69.7897 496.225 76.9402 498.365C84.0908 500.506 90.7387 499.398 91.7888 495.89C92.8389 492.382 87.8935 487.803 80.7429 485.663C73.5924 483.522 66.9444 484.63 65.8943 488.138Z" fill="url(#paint13_linear_3_131)"/>
<ellipse rx="16.2799" ry="7.71529" transform="matrix(-0.67701 0.735974 0.735974 0.67701 81.1038 479.573)" fill="#A9CE9C"/>
<ellipse rx="16.2799" ry="7.71529" transform="matrix(-0.67701 0.735974 0.735974 0.67701 81.1038 479.573)" fill="#A9CE9C"/>
<ellipse cx="26.368" cy="480.941" rx="16.2799" ry="7.71529" transform="rotate(47.3896 26.368 480.941)" fill="#A9CE9C"/>
<ellipse cx="26.368" cy="480.941" rx="16.2799" ry="7.71529" transform="rotate(47.3896 26.368 480.941)" fill="#A9CE9C"/>
<g filter="url(#filter10_d_3_131)">
<path d="M22.542 471.947C22.542 486.306 36.3266 497.946 53.3308 497.946C70.3351 497.946 84.1197 486.306 84.1197 471.947C84.1197 457.588 70.3351 445.947 53.3308 445.947C36.3266 445.947 22.542 457.588 22.542 471.947Z" fill="#A9CE9C"/>
<path d="M28.0155 451.421C28.0155 460.49 39.0433 467.841 52.6466 467.841C66.25 467.841 77.2778 460.49 77.2778 451.421C77.2778 442.352 66.25 435 52.6466 435C39.0433 435 28.0155 442.352 28.0155 451.421Z" fill="#A9CE9C"/>
<path d="M62.2254 441.842C62.2254 445.621 65.595 448.684 69.7516 448.684C73.9082 448.684 77.2778 445.621 77.2778 441.842C77.2778 438.063 73.9082 435 69.7516 435C65.595 435 62.2254 438.063 62.2254 441.842Z" fill="#A9CE9C"/>
<path d="M29.3839 441.842C29.3839 445.621 32.7535 448.684 36.9101 448.684C41.0667 448.684 44.4363 445.621 44.4363 441.842C44.4363 438.063 41.0667 435 36.9101 435C32.7535 435 29.3839 438.063 29.3839 441.842Z" fill="#A9CE9C"/>
</g>
<circle r="5.47358" transform="matrix(-1 0 0 1 70.4358 441.842)" fill="#D9D9D9"/>
<circle r="4.10519" transform="matrix(-1 0 0 1 70.4358 441.842)" fill="#353535"/>
<g filter="url(#filter11_b_3_131)">
<ellipse rx="2.05259" ry="0.684197" transform="matrix(-1 0 0 1 68.3832 439.789)" fill="#FFFEFE"/>
</g>
<circle cx="36.2259" cy="441.842" r="5.47358" fill="#D9D9D9"/>
<circle cx="36.2259" cy="441.842" r="4.10519" fill="#353535"/>
<g filter="url(#filter12_b_3_131)">
<ellipse cx="38.2785" cy="439.789" rx="2.05259" ry="0.684197" fill="#FFFEFE"/>
</g>
<path d="M59.7539 452.804C60.3029 452.795 60.7493 452.34 60.6459 451.801C60.3688 450.356 59.54 449.017 58.2662 447.989C56.7062 446.731 54.6067 446.043 52.4294 446.078C50.2522 446.113 48.1756 446.867 46.6565 448.174C45.4162 449.242 44.6305 450.607 44.3996 452.06C44.3135 452.602 44.7742 453.043 45.3232 453.034V453.034C45.8721 453.026 46.2991 452.568 46.4148 452.031C46.6329 451.019 47.2085 450.074 48.0809 449.323C49.2321 448.332 50.8058 447.761 52.4558 447.735C54.1059 447.708 55.697 448.229 56.8793 449.183C57.7751 449.906 58.3806 450.832 58.6309 451.836C58.7636 452.369 59.205 452.813 59.7539 452.804V452.804Z" fill="#EB9393"/>
<path d="M56.7472 442.039C56.7504 441.962 56.6902 441.896 56.6126 441.897C56.4809 441.898 56.3512 441.909 56.2277 441.929C56.0604 441.957 55.9075 442.001 55.7779 442.059C55.6483 442.117 55.5445 442.188 55.4723 442.268C55.4002 442.348 55.3611 442.436 55.3574 442.526C55.3536 442.615 55.3853 442.706 55.4506 442.792C55.5158 442.877 55.6134 442.957 55.7377 443.026C55.862 443.094 56.0106 443.151 56.1751 443.192C56.2965 443.223 56.4249 443.244 56.556 443.257C56.6332 443.264 56.6988 443.203 56.702 443.126V443.126C56.7052 443.048 56.6448 442.983 56.5679 442.973C56.5106 442.966 56.4545 442.955 56.4007 442.942C56.3038 442.918 56.2162 442.884 56.1429 442.844C56.0696 442.803 56.0121 442.756 55.9736 442.706C55.9352 442.655 55.9165 442.602 55.9187 442.549C55.9209 442.496 55.9439 442.445 55.9865 442.397C56.029 442.35 56.0902 442.308 56.1666 442.274C56.243 442.24 56.3331 442.214 56.4317 442.197C56.4864 442.188 56.5432 442.183 56.6009 442.18C56.6784 442.176 56.744 442.117 56.7472 442.039V442.039Z" fill="#809E75"/>
<path d="M56.7472 442.039C56.7504 441.962 56.6902 441.896 56.6126 441.897C56.4809 441.898 56.3512 441.909 56.2277 441.929C56.0604 441.957 55.9075 442.001 55.7779 442.059C55.6483 442.117 55.5445 442.188 55.4723 442.268C55.4002 442.348 55.3611 442.436 55.3574 442.526C55.3536 442.615 55.3853 442.706 55.4506 442.792C55.5158 442.877 55.6134 442.957 55.7377 443.026C55.862 443.094 56.0106 443.151 56.1751 443.192C56.2965 443.223 56.4249 443.244 56.556 443.257C56.6332 443.264 56.6988 443.203 56.702 443.126V443.126C56.7052 443.048 56.6448 442.983 56.5679 442.973C56.5106 442.966 56.4545 442.955 56.4007 442.942C56.3038 442.918 56.2162 442.884 56.1429 442.844C56.0696 442.803 56.0121 442.756 55.9736 442.706C55.9352 442.655 55.9165 442.602 55.9187 442.549C55.9209 442.496 55.9439 442.445 55.9865 442.397C56.029 442.35 56.0902 442.308 56.1666 442.274C56.243 442.24 56.3331 442.214 56.4317 442.197C56.4864 442.188 56.5432 442.183 56.6009 442.18C56.6784 442.176 56.744 442.117 56.7472 442.039V442.039Z" fill="#809E75"/>
<path d="M48.4916 442.039C48.4883 441.962 48.5486 441.896 48.6261 441.897C48.7578 441.898 48.8875 441.909 49.0111 441.929C49.1784 441.957 49.3312 442.001 49.4608 442.059C49.5904 442.117 49.6943 442.188 49.7664 442.268C49.8386 442.348 49.8776 442.436 49.8814 442.526C49.8851 442.615 49.8534 442.706 49.7882 442.792C49.7229 442.877 49.6254 442.957 49.501 443.026C49.3767 443.094 49.2281 443.151 49.0637 443.192C48.9422 443.223 48.8139 443.244 48.6827 443.257C48.6055 443.264 48.54 443.203 48.5368 443.126V443.126C48.5335 443.048 48.5939 442.983 48.6708 442.973C48.7282 442.966 48.7843 442.955 48.8381 442.942C48.935 442.918 49.0226 442.884 49.0959 442.844C49.1691 442.803 49.2267 442.756 49.2651 442.706C49.3036 442.655 49.3222 442.602 49.32 442.549C49.3178 442.496 49.2948 442.445 49.2523 442.397C49.2097 442.35 49.1485 442.308 49.0721 442.274C48.9958 442.24 48.9057 442.214 48.8071 442.197C48.7523 442.188 48.6956 442.183 48.6378 442.18C48.5603 442.176 48.4948 442.117 48.4916 442.039V442.039Z" fill="#809E75"/>
<path d="M48.4916 442.039C48.4883 441.962 48.5486 441.896 48.6261 441.897C48.7578 441.898 48.8875 441.909 49.0111 441.929C49.1784 441.957 49.3312 442.001 49.4608 442.059C49.5904 442.117 49.6943 442.188 49.7664 442.268C49.8386 442.348 49.8776 442.436 49.8814 442.526C49.8851 442.615 49.8534 442.706 49.7882 442.792C49.7229 442.877 49.6254 442.957 49.501 443.026C49.3767 443.094 49.2281 443.151 49.0637 443.192C48.9422 443.223 48.8139 443.244 48.6827 443.257C48.6055 443.264 48.54 443.203 48.5368 443.126V443.126C48.5335 443.048 48.5939 442.983 48.6708 442.973C48.7282 442.966 48.7843 442.955 48.8381 442.942C48.935 442.918 49.0226 442.884 49.0959 442.844C49.1691 442.803 49.2267 442.756 49.2651 442.706C49.3036 442.655 49.3222 442.602 49.32 442.549C49.3178 442.496 49.2948 442.445 49.2523 442.397C49.2097 442.35 49.1485 442.308 49.0721 442.274C48.9958 442.24 48.9057 442.214 48.8071 442.197C48.7523 442.188 48.6956 442.183 48.6378 442.18C48.5603 442.176 48.4948 442.117 48.4916 442.039V442.039Z" fill="#809E75"/>
<ellipse rx="6.15778" ry="2.73679" transform="matrix(-1 0 0 1 73.8568 493.841)" fill="#A9CE9C"/>
<ellipse cx="34.1733" cy="493.841" rx="6.15778" ry="2.73679" fill="#A9CE9C"/>
<defs>
<filter id="filter0_d_3_131" x="185" y="39.6087" width="267" height="306" filterUnits="userSpaceOnUse" color-interpolation-filters="sRGB">
<feFlood flood-opacity="0" result="BackgroundImageFix"/>
<feColorMatrix in="SourceAlpha" type="matrix" values="0 0 0 0 0 0 0 0 0 0 0 0 0 0 0 0 0 0 127 0" result="hardAlpha"/>
<feOffset dy="6"/>
<feGaussianBlur stdDeviation="2"/>
<feComposite in2="hardAlpha" operator="out"/>
<feColorMatrix type="matrix" values="0 0 0 0 0 0 0 0 0 0 0 0 0 0 0 0 0 0 0.25 0"/>
<feBlend mode="normal" in2="BackgroundImageFix" result="effect1_dropShadow_3_131"/>
<feBlend mode="normal" in="SourceGraphic" in2="effect1_dropShadow_3_131" result="shape"/>
</filter>
<filter id="filter1_f_3_131" x="357" y="231" width="76" height="42" filterUnits="userSpaceOnUse" color-interpolation-filters="sRGB">
<feFlood flood-opacity="0" result="BackgroundImageFix"/>
<feBlend mode="normal" in="SourceGraphic" in2="BackgroundImageFix" result="shape"/>
<feGaussianBlur stdDeviation="2" result="effect1_foregroundBlur_3_131"/>
</filter>
<filter id="filter2_f_3_131" x="211" y="230" width="76" height="42" filterUnits="userSpaceOnUse" color-interpolation-filters="sRGB">
<feFlood flood-opacity="0" result="BackgroundImageFix"/>
<feBlend mode="normal" in="SourceGraphic" in2="BackgroundImageFix" result="shape"/>
<feGaussianBlur stdDeviation="2" result="effect1_foregroundBlur_3_131"/>
</filter>
<filter id="filter3_d_3_131" x="237.655" y="200.927" width="16.5977" height="16.5978" filterUnits="userSpaceOnUse" color-interpolation-filters="sRGB">
<feFlood flood-opacity="0" result="BackgroundImageFix"/>
<feColorMatrix in="SourceAlpha" type="matrix" values="0 0 0 0 0 0 0 0 0 0 0 0 0 0 0 0 0 0 127 0" result="hardAlpha"/>
<feOffset dy="4"/>
<feGaussianBlur stdDeviation="2"/>
<feComposite in2="hardAlpha" operator="out"/>
<feColorMatrix type="matrix" values="0 0 0 0 0 0 0 0 0 0 0 0 0 0 0 0 0 0 0.25 0"/>
<feBlend mode="normal" in2="BackgroundImageFix" result="effect1_dropShadow_3_131"/>
<feBlend mode="normal" in="SourceGraphic" in2="effect1_dropShadow_3_131" result="shape"/>
</filter>
<filter id="filter4_d_3_131" x="386.521" y="200.927" width="16.5977" height="16.5978" filterUnits="userSpaceOnUse" color-interpolation-filters="sRGB">
<feFlood flood-opacity="0" result="BackgroundImageFix"/>
<feColorMatrix in="SourceAlpha" type="matrix" values="0 0 0 0 0 0 0 0 0 0 0 0 0 0 0 0 0 0 127 0" result="hardAlpha"/>
<feOffset dy="4"/>
<feGaussianBlur stdDeviation="2"/>
<feComposite in2="hardAlpha" operator="out"/>
<feColorMatrix type="matrix" values="0 0 0 0 0 0 0 0 0 0 0 0 0 0 0 0 0 0 0.25 0"/>
<feBlend mode="normal" in2="BackgroundImageFix" result="effect1_dropShadow_3_131"/>
<feBlend mode="normal" in="SourceGraphic" in2="effect1_dropShadow_3_131" result="shape"/>
</filter>
<filter id="filter5_d_3_131" x="287.02" y="269.999" width="65.998" height="25.733" filterUnits="userSpaceOnUse" color-interpolation-filters="sRGB">
<feFlood flood-opacity="0" result="BackgroundImageFix"/>
<feColorMatrix in="SourceAlpha" type="matrix" values="0 0 0 0 0 0 0 0 0 0 0 0 0 0 0 0 0 0 127 0" result="hardAlpha"/>
<feOffset dy="4"/>
<feGaussianBlur stdDeviation="2"/>
<feComposite in2="hardAlpha" operator="out"/>
<feColorMatrix type="matrix" values="0 0 0 0 0 0 0 0 0 0 0 0 0 0 0 0 0 0 0.25 0"/>
<feBlend mode="normal" in2="BackgroundImageFix" result="effect1_dropShadow_3_131"/>
<feBlend mode="normal" in="SourceGraphic" in2="effect1_dropShadow_3_131" result="shape"/>
</filter>
<filter id="filter6_d_3_131" x="320" y="272" width="13" height="10" filterUnits="userSpaceOnUse" color-interpolation-filters="sRGB">
<feFlood flood-opacity="0" result="BackgroundImageFix"/>
<feColorMatrix in="SourceAlpha" type="matrix" values="0 0 0 0 0 0 0 0 0 0 0 0 0 0 0 0 0 0 127 0" result="hardAlpha"/>
<feOffset dy="4"/>
<feGaussianBlur stdDeviation="2"/>
<feComposite in2="hardAlpha" operator="out"/>
<feColorMatrix type="matrix" values="0 0 0 0 0 0 0 0 0 0 0 0 0 0 0 0 0 0 0.25 0"/>
<feBlend mode="normal" in2="BackgroundImageFix" result="effect1_dropShadow_3_131"/>
<feBlend mode="normal" in="SourceGraphic" in2="effect1_dropShadow_3_131" result="shape"/>
</filter>
<filter id="filter7_d_3_131" x="380.439" y="351" width="101" height="102" filterUnits="userSpaceOnUse" color-interpolation-filters="sRGB">
<feFlood flood-opacity="0" result="BackgroundImageFix"/>
<feColorMatrix in="SourceAlpha" type="matrix" values="0 0 0 0 0 0 0 0 0 0 0 0 0 0 0 0 0 0 127 0" result="hardAlpha"/>
<feOffset dy="4"/>
<feGaussianBlur stdDeviation="2"/>
<feComposite in2="hardAlpha" operator="out"/>
<feColorMatrix type="matrix" values="0 0 0 0 0 0 0 0 0 0 0 0 0 0 0 0 0 0 0.25 0"/>
<feBlend mode="normal" in2="BackgroundImageFix" result="effect1_dropShadow_3_131"/>
<feBlend mode="normal" in="SourceGraphic" in2="effect1_dropShadow_3_131" result="shape"/>
</filter>
<filter id="filter8_d_3_131" x="161.439" y="350" width="101" height="102" filterUnits="userSpaceOnUse" color-interpolation-filters="sRGB">
<feFlood flood-opacity="0" result="BackgroundImageFix"/>
<feColorMatrix in="SourceAlpha" type="matrix" values="0 0 0 0 0 0 0 0 0 0 0 0 0 0 0 0 0 0 127 0" result="hardAlpha"/>
<feOffset dy="4"/>
<feGaussianBlur stdDeviation="2"/>
<feComposite in2="hardAlpha" operator="out"/>
<feColorMatrix type="matrix" values="0 0 0 0 0 0 0 0 0 0 0 0 0 0 0 0 0 0 0.25 0"/>
<feBlend mode="normal" in2="BackgroundImageFix" result="effect1_dropShadow_3_131"/>
<feBlend mode="normal" in="SourceGraphic" in2="effect1_dropShadow_3_131" result="shape"/>
</filter>
<filter id="filter9_d_3_131" x="228.439" y="571" width="162.172" height="98" filterUnits="userSpaceOnUse" color-interpolation-filters="sRGB">
<feFlood flood-opacity="0" result="BackgroundImageFix"/>
<feColorMatrix in="SourceAlpha" type="matrix" values="0 0 0 0 0 0 0 0 0 0 0 0 0 0 0 0 0 0 127 0" result="hardAlpha"/>
<feOffset dy="4"/>
<feGaussianBlur stdDeviation="2"/>
<feComposite in2="hardAlpha" operator="out"/>
<feColorMatrix type="matrix" values="0 0 0 0 0 0 0 0 0 0 0 0 0 0 0 0 0 0 0.25 0"/>
<feBlend mode="normal" in2="BackgroundImageFix" result="effect1_dropShadow_3_131"/>
<feBlend mode="normal" in="SourceGraphic" in2="effect1_dropShadow_3_131" result="shape"/>
</filter>
<filter id="filter10_d_3_131" x="18.542" y="435" width="69.5778" height="70.9462" filterUnits="userSpaceOnUse" color-interpolation-filters="sRGB">
<feFlood flood-opacity="0" result="BackgroundImageFix"/>
<feColorMatrix in="SourceAlpha" type="matrix" values="0 0 0 0 0 0 0 0 0 0 0 0 0 0 0 0 0 0 127 0" result="hardAlpha"/>
<feOffset dy="4"/>
<feGaussianBlur stdDeviation="2"/>
<feComposite in2="hardAlpha" operator="out"/>
<feColorMatrix type="matrix" values="0 0 0 0 0 0 0 0 0 0 0 0 0 0 0 0 0 0 0.25 0"/>
<feBlend mode="normal" in2="BackgroundImageFix" result="effect1_dropShadow_3_131"/>
<feBlend mode="normal" in="SourceGraphic" in2="effect1_dropShadow_3_131" result="shape"/>
</filter>
<filter id="filter11_b_3_131" x="62.3306" y="435.105" width="12.1052" height="9.36839" filterUnits="userSpaceOnUse" color-interpolation-filters="sRGB">
<feFlood flood-opacity="0" result="BackgroundImageFix"/>
<feGaussianBlur in="BackgroundImage" stdDeviation="2"/>
<feComposite in2="SourceAlpha" operator="in" result="effect1_backgroundBlur_3_131"/>
<feBlend mode="normal" in="SourceGraphic" in2="effect1_backgroundBlur_3_131" result="shape"/>
</filter>
<filter id="filter12_b_3_131" x="32.2259" y="435.105" width="12.1052" height="9.36839" filterUnits="userSpaceOnUse" color-interpolation-filters="sRGB">
<feFlood flood-opacity="0" result="BackgroundImageFix"/>
<feGaussianBlur in="BackgroundImage" stdDeviation="2"/>
<feComposite in2="SourceAlpha" operator="in" result="effect1_backgroundBlur_3_131"/>
<feBlend mode="normal" in="SourceGraphic" in2="effect1_backgroundBlur_3_131" result="shape"/>
</filter>
<linearGradient id="paint0_linear_3_131" x1="321.033" y1="16.0313" x2="321" y2="577" gradientUnits="userSpaceOnUse">
<stop offset="0.125" stop-color="#2F2F2F"/>
<stop offset="0.375"/>
<stop offset="1" stop-color="#313131"/>
</linearGradient>
<linearGradient id="paint1_linear_3_131" x1="317.5" y1="326" x2="317.5" y2="388" gradientUnits="userSpaceOnUse">
<stop offset="0.260417" stop-color="#AB8E73"/>
<stop offset="1" stop-color="#DED1C5"/>
</linearGradient>
<linearGradient id="paint2_linear_3_131" x1="316.784" y1="36.4547" x2="326.726" y2="174" gradientUnits="userSpaceOnUse">
<stop stop-color="#535353"/>
<stop offset="1"/>
</linearGradient>
<linearGradient id="paint3_linear_3_131" x1="22.9096" y1="491.834" x2="9.7141" y2="492.614" gradientUnits="userSpaceOnUse">
<stop stop-color="#DED1C5"/>
<stop offset="1" stop-color="#F3ACAC"/>
</linearGradient>
<linearGradient id="paint4_linear_3_131" x1="22.9096" y1="491.834" x2="9.7141" y2="492.614" gradientUnits="userSpaceOnUse">
<stop stop-color="#DED1C5"/>
<stop offset="1" stop-color="#F3ACAC"/>
</linearGradient>
<linearGradient id="paint5_linear_3_131" x1="28.6525" y1="476.049" x2="16.9386" y2="470.5" gradientUnits="userSpaceOnUse">
<stop stop-color="#DED1C5"/>
<stop offset="1" stop-color="#F3ACAC"/>
</linearGradient>
<linearGradient id="paint6_linear_3_131" x1="28.6525" y1="476.049" x2="16.9386" y2="470.5" gradientUnits="userSpaceOnUse">
<stop stop-color="#DED1C5"/>
<stop offset="1" stop-color="#F3ACAC"/>
</linearGradient>
<linearGradient id="paint7_linear_3_131" x1="9.94882" y1="5.54338" x2="22.9108" y2="-6.65882" gradientUnits="userSpaceOnUse">
<stop stop-color="#DED1C5"/>
<stop offset="1" stop-color="#F3ACAC"/>
</linearGradient>
<linearGradient id="paint8_linear_3_131" x1="8.55703" y1="5.15585" x2="20.5197" y2="-5.25825" gradientUnits="userSpaceOnUse">
<stop stop-color="#DED1C5"/>
<stop offset="1" stop-color="#F3ACAC"/>
</linearGradient>
<linearGradient id="paint9_linear_3_131" x1="10.4386" y1="487" x2="28.9755" y2="512.079" gradientUnits="userSpaceOnUse">
<stop stop-color="#F3ACAC"/>
<stop offset="1" stop-color="#D1C4B7"/>
</linearGradient>
<linearGradient id="paint10_linear_3_131" x1="10.4386" y1="487" x2="28.9755" y2="512.079" gradientUnits="userSpaceOnUse">
<stop stop-color="#F3ACAC"/>
<stop offset="1" stop-color="#D1C4B7"/>
</linearGradient>
<linearGradient id="paint11_linear_3_131" x1="49.4386" y1="473" x2="78.9386" y2="492" gradientUnits="userSpaceOnUse">
<stop stop-color="#F3ACAC"/>
<stop offset="1" stop-color="#DED1C5"/>
</linearGradient>
<linearGradient id="paint12_linear_3_131" x1="49.4386" y1="473" x2="78.9386" y2="492" gradientUnits="userSpaceOnUse">
<stop stop-color="#F3ACAC"/>
<stop offset="1" stop-color="#DED1C5"/>
</linearGradient>
<linearGradient id="paint13_linear_3_131" x1="49.4386" y1="473" x2="78.9386" y2="492" gradientUnits="userSpaceOnUse">
<stop stop-color="#F3ACAC"/>
<stop offset="1" stop-color="#DED1C5"/>
</linearGradient>
</defs>
</svg>
