<svg width="285" height="282" viewBox="0 0 285 282" fill="none" xmlns="http://www.w3.org/2000/svg">
<ellipse cx="142.5" cy="141" rx="142.5" ry="141" fill="black"/>
<path d="M278.5 142C278.5 215.702 217.527 275.5 142.25 275.5C139.252 275.5 136.277 275.405 133.328 275.218C62.2342 270.717 6.5 211.752 6.5 140.963C6.5 79.8782 48.38 28.3464 105.583 12.4904C117.331 9.23401 129.273 8.5 142.25 8.5C217.527 8.5 278.5 68.2984 278.5 142Z" fill="black" stroke="white" stroke-width="3"/>
<path fill-rule="evenodd" clip-rule="evenodd" d="M98.1271 15L98.127 168.397H132.98L132.597 101.277L156.596 101.14L156.981 168.397H214.659V101.209H238.659V168.397H275.185C273.455 176.705 270.956 184.731 267.765 192.397H238.659V235.788C231.429 243.004 223.378 249.399 214.659 254.82V192.397H157.118L157.585 274.262C153.118 274.712 148.586 274.942 144 274.942C140.496 274.942 137.023 274.808 133.586 274.544L133.117 192.397H74V168.397H74.127L74.1271 26.5792C81.6675 21.9623 89.6998 18.0703 98.1271 15Z" fill="white"/>
<line x1="106" y1="11.9941" x2="107" y2="181.994" stroke="white" stroke-width="2"/>
<line x1="246" y1="102" x2="246" y2="229" stroke="white" stroke-width="2"/>
<line x1="163" y1="101.994" x2="164" y2="274.994" stroke="white" stroke-width="2"/>
<path d="M69.1605 255C60.0811 253.493 26.5571 218.248 19.1605 199.5C11.7638 180.752 8.15846 175.986 5.66049 149C3.16255 122.014 10.8179 103.755 17.1605 85C23.5031 66.2453 61.1605 30.5 69.1605 27.5V141V199.5V255Z" fill="white"/>
<path d="M69 27L77 22L75.5 260L72 258.5L69 256V27Z" fill="black"/>
<line x1="74" y1="196" x2="31" y2="196" stroke="black" stroke-width="8"/>
</svg>
